<svg width="16" height="16" viewBox="0 0 16 16" fill="none" xmlns="http://www.w3.org/2000/svg">
    <path fill-rule="evenodd" clip-rule="evenodd" d="M6.66634 1.99984C6.48953 1.99984 6.31996 2.07008 6.19494 2.1951C6.06991 2.32012 5.99967 2.48969 5.99967 2.6665V3.33317H9.99967V2.6665C9.99967 2.48969 9.92944 2.32012 9.80441 2.1951C9.67939 2.07008 9.50982 1.99984 9.33301 1.99984H6.66634ZM11.333 3.33317V2.6665C11.333 2.13607 11.1223 1.62736 10.7472 1.25229C10.3721 0.877218 9.86344 0.666504 9.33301 0.666504H6.66634C6.13591 0.666504 5.6272 0.877218 5.25213 1.25229C4.87706 1.62736 4.66634 2.13607 4.66634 2.6665V3.33317H1.99967C1.63148 3.33317 1.33301 3.63165 1.33301 3.99984C1.33301 4.36803 1.63148 4.6665 1.99967 4.6665H2.66634V13.3332C2.66634 13.8636 2.87705 14.3723 3.25213 14.7474C3.6272 15.1225 4.13591 15.3332 4.66634 15.3332H11.333C11.8634 15.3332 12.3721 15.1225 12.7472 14.7474C13.1223 14.3723 13.333 13.8636 13.333 13.3332V4.6665H13.9997C14.3679 4.6665 14.6663 4.36803 14.6663 3.99984C14.6663 3.63165 14.3679 3.33317 13.9997 3.33317H11.333ZM3.99967 4.6665V13.3332C3.99967 13.51 4.06991 13.6796 4.19494 13.8046C4.31996 13.9296 4.48953 13.9998 4.66634 13.9998H11.333C11.5098 13.9998 11.6794 13.9296 11.8044 13.8046C11.9294 13.6796 11.9997 13.51 11.9997 13.3332V4.6665H3.99967ZM6.66634 6.6665C7.03453 6.6665 7.33301 6.96498 7.33301 7.33317V11.3332C7.33301 11.7014 7.03453 11.9998 6.66634 11.9998C6.29815 11.9998 5.99967 11.7014 5.99967 11.3332V7.33317C5.99967 6.96498 6.29815 6.6665 6.66634 6.6665ZM8.66634 7.33317C8.66634 6.96498 8.96482 6.6665 9.33301 6.6665C9.7012 6.6665 9.99967 6.96498 9.99967 7.33317V11.3332C9.99967 11.7014 9.7012 11.9998 9.33301 11.9998C8.96482 11.9998 8.66634 11.7014 8.66634 11.3332V7.33317Z" fill="#595959"/>
</svg>
