<svg width="16" height="16" viewBox="0 0 16 16" fill="none" xmlns="http://www.w3.org/2000/svg">
    <path d="M6.66667 14.6668H9.33333C12.6667 14.6668 14 13.3335 14 10.0002V6.00016C14 2.66683 12.6667 1.3335 9.33333 1.3335H6.66667C3.33333 1.3335 2 2.66683 2 6.00016V10.0002C2 13.3335 3.33333 14.6668 6.66667 14.6668Z" stroke="#595959" stroke-width="1.5" stroke-linecap="round" stroke-linejoin="round"/>
    <path d="M11 5.05322V5.71989C11 6.26656 10.5533 6.71989 10 6.71989H6C5.45333 6.71989 5 6.27322 5 5.71989V5.05322C5 4.50656 5.44667 4.05322 6 4.05322H10C10.5533 4.05322 11 4.49989 11 5.05322Z" stroke="#595959" stroke-width="1.5" stroke-linecap="round" stroke-linejoin="round"/>
    <path d="M5.42408 9.33333H5.43178" stroke="#595959" stroke-width="2" stroke-linecap="round" stroke-linejoin="round"/>
    <path d="M7.99634 9.33333H8.00405" stroke="#595959" stroke-width="2" stroke-linecap="round" stroke-linejoin="round"/>
    <path d="M10.5696 9.33333H10.5773" stroke="#595959" stroke-width="2" stroke-linecap="round" stroke-linejoin="round"/>
    <path d="M5.42408 11.6668H5.43178" stroke="#595959" stroke-width="2" stroke-linecap="round" stroke-linejoin="round"/>
    <path d="M7.99634 11.6668H8.00405" stroke="#595959" stroke-width="2" stroke-linecap="round" stroke-linejoin="round"/>
    <path d="M10.5696 11.6668H10.5773" stroke="#595959" stroke-width="2" stroke-linecap="round" stroke-linejoin="round"/>
</svg>
