<svg width="16" height="16" viewBox="0 0 16 16" fill="none" xmlns="http://www.w3.org/2000/svg">
    <g clip-path="url(#clip0_992_20784)">
        <path fill-rule="evenodd" clip-rule="evenodd" d="M6.67804 2.14345C7.94008 1.85831 9.26049 1.98877 10.4423 2.51537C10.7786 2.66522 11.1728 2.51406 11.3226 2.17775C11.4725 1.84143 11.3213 1.44732 10.985 1.29746C9.54052 0.653842 7.92669 0.494396 6.3842 0.842902C4.8417 1.19141 3.45318 2.0292 2.42573 3.23132C1.39828 4.43343 0.786938 5.93548 0.682888 7.51343C0.578839 9.09138 0.987654 10.6607 1.84836 11.9873C2.70907 13.3139 3.97556 14.3268 5.45894 14.8748C6.94232 15.4229 8.56311 15.4767 10.0796 15.0283C11.5961 14.5799 12.927 13.6534 13.8738 12.3868C14.8207 11.1202 15.3328 9.58151 15.3337 8.00013V7.38641C15.3337 7.01822 15.0352 6.71975 14.667 6.71975C14.2988 6.71975 14.0003 7.01822 14.0003 7.38641V7.99937C13.9996 9.29322 13.5806 10.5522 12.8059 11.5885C12.0312 12.6248 10.9423 13.3829 9.70154 13.7497C8.46078 14.1166 7.13468 14.0725 5.92101 13.6241C4.70734 13.1757 3.67112 12.347 2.9669 11.2616C2.26269 10.1762 1.9282 8.89221 2.01333 7.60116C2.09846 6.31011 2.59865 5.08116 3.43929 4.09761C4.27994 3.11406 5.416 2.4286 6.67804 2.14345ZM15.1386 3.13759C15.3989 2.87711 15.3986 2.455 15.1382 2.19478C14.8777 1.93456 14.4556 1.93477 14.1954 2.19525L8.00009 8.39671L6.47173 6.86835C6.21138 6.608 5.78927 6.608 5.52892 6.86835C5.26857 7.1287 5.26857 7.55081 5.52892 7.81116L7.52892 9.81116C7.65399 9.93623 7.82362 10.0065 8.00049 10.0064C8.17736 10.0064 8.34696 9.93605 8.47197 9.81093L15.1386 3.13759Z" fill="#595959"/>
    </g>
    <defs>
        <clipPath id="clip0_992_20784">
            <rect width="16" height="16" fill="white"/>
        </clipPath>
    </defs>
</svg>
