<svg width="16" height="16" viewBox="0 0 16 16" fill="none" xmlns="http://www.w3.org/2000/svg">
    <g clip-path="url(#clip0_992_20792)">
        <path fill-rule="evenodd" clip-rule="evenodd" d="M8.00033 1.99984C4.68662 1.99984 2.00033 4.68613 2.00033 7.99984C2.00033 11.3135 4.68662 13.9998 8.00033 13.9998C11.314 13.9998 14.0003 11.3135 14.0003 7.99984C14.0003 4.68613 11.314 1.99984 8.00033 1.99984ZM0.666992 7.99984C0.666992 3.94975 3.95024 0.666504 8.00033 0.666504C12.0504 0.666504 15.3337 3.94975 15.3337 7.99984C15.3337 12.0499 12.0504 15.3332 8.00033 15.3332C3.95024 15.3332 0.666992 12.0499 0.666992 7.99984ZM4.66699 7.99984C4.66699 7.63165 4.96547 7.33317 5.33366 7.33317H10.667C11.0352 7.33317 11.3337 7.63165 11.3337 7.99984C11.3337 8.36803 11.0352 8.6665 10.667 8.6665H5.33366C4.96547 8.6665 4.66699 8.36803 4.66699 7.99984Z" fill="#595959"/>
    </g>
    <defs>
        <clipPath id="clip0_992_20792">
            <rect width="16" height="16" fill="white"/>
        </clipPath>
    </defs>
</svg>
