<svg width="16" height="16" viewBox="0 0 16 16" fill="none" xmlns="http://www.w3.org/2000/svg">
    <g clip-path="url(#clip0_992_20676)">
        <path fill-rule="evenodd" clip-rule="evenodd" d="M2.66699 1.99984C2.49018 1.99984 2.32061 2.07008 2.19559 2.1951C2.07056 2.32012 2.00033 2.48969 2.00033 2.6665V8.6665C2.00033 8.84331 2.07056 9.01288 2.19559 9.13791C2.32061 9.26293 2.49018 9.33317 2.66699 9.33317H3.33366C3.70185 9.33317 4.00033 9.63165 4.00033 9.99984C4.00033 10.368 3.70185 10.6665 3.33366 10.6665H2.66699C2.13656 10.6665 1.62785 10.4558 1.25278 10.0807C0.877706 9.70564 0.666992 9.19694 0.666992 8.6665V2.6665C0.666992 2.13607 0.877706 1.62736 1.25278 1.25229C1.62785 0.877217 2.13656 0.666504 2.66699 0.666504H8.66699C9.19742 0.666504 9.70613 0.877218 10.0812 1.25229C10.4563 1.62736 10.667 2.13607 10.667 2.6665V3.33317C10.667 3.70136 10.3685 3.99984 10.0003 3.99984C9.63213 3.99984 9.33366 3.70136 9.33366 3.33317V2.6665C9.33366 2.48969 9.26342 2.32012 9.1384 2.1951C9.01337 2.07007 8.8438 1.99984 8.66699 1.99984H2.66699ZM7.33366 6.6665C6.96547 6.6665 6.66699 6.96498 6.66699 7.33317V13.3332C6.66699 13.7014 6.96547 13.9998 7.33366 13.9998H13.3337C13.7018 13.9998 14.0003 13.7014 14.0003 13.3332V7.33317C14.0003 6.96498 13.7018 6.6665 13.3337 6.6665H7.33366ZM5.33366 7.33317C5.33366 6.2286 6.22909 5.33317 7.33366 5.33317H13.3337C14.4382 5.33317 15.3337 6.2286 15.3337 7.33317V13.3332C15.3337 14.4377 14.4382 15.3332 13.3337 15.3332H7.33366C6.22909 15.3332 5.33366 14.4377 5.33366 13.3332V7.33317Z" fill="#595959"/>
    </g>
    <defs>
        <clipPath id="clip0_992_20676">
            <rect width="16" height="16" fill="white"/>
        </clipPath>
    </defs>
</svg>
