<svg width="16" height="16" viewBox="0 0 16 16" fill="none" xmlns="http://www.w3.org/2000/svg">
    <g clip-path="url(#clip0_992_20657)">
        <path fill-rule="evenodd" clip-rule="evenodd" d="M12.667 2.1141C12.5069 2.1141 12.3484 2.14562 12.2005 2.20688C12.0526 2.26814 11.9183 2.35793 11.8051 2.47112L2.93027 11.3459L2.28382 13.7162L4.65412 13.0698L13.5289 4.19498C13.6421 4.08178 13.7319 3.94741 13.7932 3.79952C13.8544 3.65163 13.886 3.49312 13.886 3.33305C13.886 3.17297 13.8544 3.01446 13.7932 2.86657C13.7319 2.71868 13.6421 2.58431 13.5289 2.47112C13.4157 2.35793 13.2814 2.26814 13.1335 2.20688C12.9856 2.14562 12.8271 2.1141 12.667 2.1141ZM11.6903 0.975043C11.9999 0.846778 12.3318 0.780762 12.667 0.780762C13.0022 0.780762 13.3341 0.846778 13.6437 0.975043C13.9534 1.10331 14.2347 1.29131 14.4717 1.52831C14.7087 1.76531 14.8967 2.04667 15.025 2.35633C15.1533 2.66599 15.2193 2.99788 15.2193 3.33305C15.2193 3.66822 15.1533 4.0001 15.025 4.30976C14.8967 4.61942 14.7087 4.90078 14.4717 5.13778L5.47175 14.1378C5.38971 14.2198 5.28768 14.279 5.17575 14.3096L1.50909 15.3096C1.27828 15.3725 1.03144 15.307 0.86227 15.1378C0.693103 14.9686 0.627551 14.7218 0.690498 14.491L1.6905 10.8243C1.72102 10.7124 1.78023 10.6103 1.86227 10.5283L10.8623 1.52831C11.0993 1.29131 11.3806 1.10331 11.6903 0.975043Z" fill="#595959"/>
    </g>
    <defs>
        <clipPath id="clip0_992_20657">
            <rect width="16" height="16" fill="white"/>
        </clipPath>
    </defs>
</svg>
