<svg width="16" height="16" viewBox="0 0 16 16" fill="none" xmlns="http://www.w3.org/2000/svg">
    <path fill-rule="evenodd" clip-rule="evenodd" d="M1.33301 4.00016C1.33301 3.63197 1.63148 3.3335 1.99967 3.3335H2.00634C2.37453 3.3335 2.67301 3.63197 2.67301 4.00016C2.67301 4.36835 2.37453 4.66683 2.00634 4.66683H1.99967C1.63148 4.66683 1.33301 4.36835 1.33301 4.00016ZM4.66634 4.00016C4.66634 3.63197 4.96482 3.3335 5.33301 3.3335H13.9997C14.3679 3.3335 14.6663 3.63197 14.6663 4.00016C14.6663 4.36835 14.3679 4.66683 13.9997 4.66683H5.33301C4.96482 4.66683 4.66634 4.36835 4.66634 4.00016ZM1.33301 8.00016C1.33301 7.63197 1.63148 7.3335 1.99967 7.3335H2.00634C2.37453 7.3335 2.67301 7.63197 2.67301 8.00016C2.67301 8.36835 2.37453 8.66683 2.00634 8.66683H1.99967C1.63148 8.66683 1.33301 8.36835 1.33301 8.00016ZM4.66634 8.00016C4.66634 7.63197 4.96482 7.3335 5.33301 7.3335H13.9997C14.3679 7.3335 14.6663 7.63197 14.6663 8.00016C14.6663 8.36835 14.3679 8.66683 13.9997 8.66683H5.33301C4.96482 8.66683 4.66634 8.36835 4.66634 8.00016ZM1.33301 12.0002C1.33301 11.632 1.63148 11.3335 1.99967 11.3335H2.00634C2.37453 11.3335 2.67301 11.632 2.67301 12.0002C2.67301 12.3684 2.37453 12.6668 2.00634 12.6668H1.99967C1.63148 12.6668 1.33301 12.3684 1.33301 12.0002ZM4.66634 12.0002C4.66634 11.632 4.96482 11.3335 5.33301 11.3335H13.9997C14.3679 11.3335 14.6663 11.632 14.6663 12.0002C14.6663 12.3684 14.3679 12.6668 13.9997 12.6668H5.33301C4.96482 12.6668 4.66634 12.3684 4.66634 12.0002Z" fill="#595959"/>
</svg>
