<svg width="16" height="16" viewBox="0 0 16 16" fill="none" xmlns="http://www.w3.org/2000/svg">
    <path d="M8 7.33317C8.36819 7.33317 8.66667 7.63165 8.66667 7.99984V9.33317H10C10.3682 9.33317 10.6667 9.63165 10.6667 9.99984C10.6667 10.368 10.3682 10.6665 10 10.6665H8.66667V11.9998C8.66667 12.368 8.36819 12.6665 8 12.6665C7.63181 12.6665 7.33333 12.368 7.33333 11.9998V10.6665H6C5.63181 10.6665 5.33333 10.368 5.33333 9.99984C5.33333 9.63165 5.63181 9.33317 6 9.33317H7.33333V7.99984C7.33333 7.63165 7.63181 7.33317 8 7.33317Z" fill="#595959"/>
    <path fill-rule="evenodd" clip-rule="evenodd" d="M4 0.666504C3.46957 0.666504 2.96086 0.877217 2.58579 1.25229C2.21071 1.62736 2 2.13607 2 2.6665V13.3332C2 13.8636 2.21071 14.3723 2.58579 14.7474C2.96086 15.1225 3.46957 15.3332 4 15.3332H12C12.5304 15.3332 13.0391 15.1225 13.4142 14.7474C13.7893 14.3723 14 13.8636 14 13.3332V5.33317C14 5.15636 13.9298 4.98679 13.8047 4.86177L9.80474 0.861766C9.67971 0.736742 9.51014 0.666504 9.33333 0.666504H4ZM3.5286 2.1951C3.65362 2.07007 3.82319 1.99984 4 1.99984H8.66667V5.33317C8.66667 5.70136 8.96514 5.99984 9.33333 5.99984H12.6667V13.3332C12.6667 13.51 12.5964 13.6795 12.4714 13.8046C12.3464 13.9296 12.1768 13.9998 12 13.9998H4C3.82319 13.9998 3.65362 13.9296 3.5286 13.8046C3.40357 13.6795 3.33333 13.51 3.33333 13.3332V2.6665C3.33333 2.48969 3.40357 2.32012 3.5286 2.1951ZM11.7239 4.6665L10 2.94265V4.6665H11.7239Z" fill="#595959"/>
</svg>
