<svg width="16" height="16" viewBox="0 0 16 16" fill="none" xmlns="http://www.w3.org/2000/svg">
    <path fill-rule="evenodd" clip-rule="evenodd" d="M8.00033 2.6665C8.36852 2.6665 8.66699 2.96498 8.66699 3.33317V7.33317H12.667C13.0352 7.33317 13.3337 7.63165 13.3337 7.99984C13.3337 8.36803 13.0352 8.6665 12.667 8.6665H8.66699V12.6665C8.66699 13.0347 8.36852 13.3332 8.00033 13.3332C7.63214 13.3332 7.33366 13.0347 7.33366 12.6665V8.6665H3.33366C2.96547 8.6665 2.66699 8.36803 2.66699 7.99984C2.66699 7.63165 2.96547 7.33317 3.33366 7.33317H7.33366V3.33317C7.33366 2.96498 7.63214 2.6665 8.00033 2.6665Z" fill="#595959"/>
</svg>
