<svg width="16" height="16" viewBox="0 0 16 16" fill="none" xmlns="http://www.w3.org/2000/svg">
    <path fill-rule="evenodd" clip-rule="evenodd" d="M11.0781 12.0214C10.0517 12.8425 8.74969 13.3335 7.33301 13.3335C4.0193 13.3335 1.33301 10.6472 1.33301 7.3335C1.33301 4.01979 4.0193 1.3335 7.33301 1.3335C10.6467 1.3335 13.333 4.01979 13.333 7.3335C13.333 8.75017 12.842 10.0522 12.0209 11.0786L14.4711 13.5288C14.7314 13.7891 14.7314 14.2112 14.4711 14.4716C14.2107 14.7319 13.7886 14.7319 13.5283 14.4716L11.0781 12.0214ZM2.66634 7.3335C2.66634 4.75617 4.75568 2.66683 7.33301 2.66683C9.91034 2.66683 11.9997 4.75617 11.9997 7.3335C11.9997 8.59079 11.5025 9.73195 10.6939 10.5711C10.6711 10.5886 10.6492 10.6079 10.6283 10.6288C10.6074 10.6497 10.5881 10.6716 10.5706 10.6944C9.73146 11.503 8.5903 12.0002 7.33301 12.0002C4.75568 12.0002 2.66634 9.91083 2.66634 7.3335Z" fill="#595959"/>
</svg>
