<svg width="16" height="16" viewBox="0 0 16 16" fill="none" xmlns="http://www.w3.org/2000/svg">
<path fill-rule="evenodd" clip-rule="evenodd" d="M6 1.3335C4.15905 1.3335 2.66667 2.82588 2.66667 4.66683C2.66667 6.50778 4.15905 8.00016 6 8.00016C7.84095 8.00016 9.33333 6.50778 9.33333 4.66683C9.33333 2.82588 7.84095 1.3335 6 1.3335ZM4 4.66683C4 3.56226 4.89543 2.66683 6 2.66683C7.10457 2.66683 8 3.56226 8 4.66683C8 5.7714 7.10457 6.66683 6 6.66683C4.89543 6.66683 4 5.7714 4 4.66683Z" fill="#565655"/>
<path d="M3.33333 9.3335C2.44928 9.3335 1.60143 9.68469 0.976311 10.3098C0.35119 10.9349 0 11.7828 0 12.6668V14.0002C0 14.3684 0.298477 14.6668 0.666667 14.6668C1.03486 14.6668 1.33333 14.3684 1.33333 14.0002V12.6668C1.33333 12.1364 1.54405 11.6277 1.91912 11.2526C2.29419 10.8775 2.8029 10.6668 3.33333 10.6668H8.66667C9.1971 10.6668 9.70581 10.8775 10.0809 11.2526C10.456 11.6277 10.6667 12.1364 10.6667 12.6668V14.0002C10.6667 14.3684 10.9651 14.6668 11.3333 14.6668C11.7015 14.6668 12 14.3684 12 14.0002V12.6668C12 11.7828 11.6488 10.9349 11.0237 10.3098C10.3986 9.68469 9.55072 9.3335 8.66667 9.3335H3.33333Z" fill="#565655"/>
<path d="M12.6878 9.92017C12.7799 9.56367 13.1435 9.34929 13.5 9.44134C14.2151 9.62598 14.8486 10.0429 15.3011 10.6266C15.7536 11.2103 15.9994 11.9278 16 12.6663V14.0002C16 14.3684 15.7015 14.6668 15.3333 14.6668C14.9651 14.6668 14.6667 14.3684 14.6667 14.0002V12.6673C14.6663 12.2243 14.5188 11.7937 14.2474 11.4435C13.9759 11.0933 13.5957 10.8431 13.1667 10.7323C12.8102 10.6403 12.5958 10.2767 12.6878 9.92017Z" fill="#565655"/>
<path d="M10.832 1.441C10.4753 1.34967 10.1122 1.56479 10.0208 1.92147C9.92951 2.27816 10.1446 2.64134 10.5013 2.73267C10.9315 2.84282 11.3128 3.09302 11.5851 3.44382C11.8574 3.79463 12.0052 4.22608 12.0052 4.67017C12.0052 5.11425 11.8574 5.54571 11.5851 5.89651C11.3128 6.24732 10.9315 6.49752 10.5013 6.60767C10.1446 6.69899 9.92951 7.06217 10.0208 7.41886C10.1122 7.77554 10.4753 7.99066 10.832 7.89933C11.549 7.71575 12.1846 7.29875 12.6384 6.71407C13.0922 6.1294 13.3386 5.41031 13.3386 4.67017C13.3386 3.93002 13.0922 3.21093 12.6384 2.62626C12.1846 2.04158 11.549 1.62458 10.832 1.441Z" fill="#565655"/>
</svg>
