<svg width="16" height="16" viewBox="0 0 16 16" fill="none" xmlns="http://www.w3.org/2000/svg">
<path d="M14.6667 11.6667H10" stroke="#8C8C8C" stroke-miterlimit="10" stroke-linecap="round" stroke-linejoin="round"/>
<path d="M3.33301 11.6667H1.33301" stroke="#8C8C8C" stroke-miterlimit="10" stroke-linecap="round" stroke-linejoin="round"/>
<path d="M14.6665 4.3335H12.6665" stroke="#8C8C8C" stroke-miterlimit="10" stroke-linecap="round" stroke-linejoin="round"/>
<path d="M5.99967 4.3335H1.33301" stroke="#8C8C8C" stroke-miterlimit="10" stroke-linecap="round" stroke-linejoin="round"/>
<path d="M4.66634 9.66675H8.66634C9.39967 9.66675 9.99967 10.0001 9.99967 11.0001V12.3334C9.99967 13.3334 9.39967 13.6667 8.66634 13.6667H4.66634C3.93301 13.6667 3.33301 13.3334 3.33301 12.3334V11.0001C3.33301 10.0001 3.93301 9.66675 4.66634 9.66675Z" stroke="#8C8C8C" stroke-miterlimit="10" stroke-linecap="round" stroke-linejoin="round"/>
<path d="M7.33333 2.33325H11.3333C12.0667 2.33325 12.6667 2.66659 12.6667 3.66659V4.99992C12.6667 5.99992 12.0667 6.33325 11.3333 6.33325H7.33333C6.6 6.33325 6 5.99992 6 4.99992V3.66659C6 2.66659 6.6 2.33325 7.33333 2.33325Z" stroke="#8C8C8C" stroke-miterlimit="10" stroke-linecap="round" stroke-linejoin="round"/>
</svg>
