<svg width="16" height="16" viewBox="0 0 16 16" fill="none" xmlns="http://www.w3.org/2000/svg">
<path d="M8.67318 1.94663L12.6065 3.6933C13.7399 4.1933 13.7399 5.01996 12.6065 5.51996L8.67318 7.26663C8.22652 7.46663 7.49318 7.46663 7.04652 7.26663L3.11318 5.51996C1.97985 5.01996 1.97985 4.1933 3.11318 3.6933L7.04652 1.94663C7.49318 1.74663 8.22652 1.74663 8.67318 1.94663Z" stroke="#8C8C8C" stroke-linecap="round" stroke-linejoin="round"/>
<path d="M2 7.33337C2 7.89337 2.42 8.54004 2.93333 8.76671L7.46 10.78C7.80667 10.9334 8.2 10.9334 8.54 10.78L13.0667 8.76671C13.58 8.54004 14 7.89337 14 7.33337" stroke="#8C8C8C" stroke-linecap="round" stroke-linejoin="round"/>
<path d="M2 10.6666C2 11.2866 2.36667 11.8466 2.93333 12.1L7.46 14.1133C7.80667 14.2666 8.2 14.2666 8.54 14.1133L13.0667 12.1C13.6333 11.8466 14 11.2866 14 10.6666" stroke="#8C8C8C" stroke-linecap="round" stroke-linejoin="round"/>
</svg>
