<svg width="24" height="24" viewBox="0 0 24 24" fill="none" xmlns="http://www.w3.org/2000/svg">
<rect width="24" height="24" rx="4" fill="none"/>
<path fill-rule="evenodd" clip-rule="evenodd" d="M7.3335 18.6667C6.22893 18.6667 5.3335 17.7713 5.3335 16.6667V7.33337C5.3335 6.2288 6.22893 5.33337 7.3335 5.33337H16.6668C17.7714 5.33337 18.6668 6.2288 18.6668 7.33337V16.6667C18.6668 17.7713 17.7714 18.6667 16.6668 18.6667H7.3335ZM6.66683 7.33337C6.66683 6.96518 6.96531 6.66671 7.3335 6.66671H9.3335V17.3334H7.3335C6.96531 17.3334 6.66683 17.0349 6.66683 16.6667V7.33337ZM10.6668 17.3334V6.66671H16.6668C17.035 6.66671 17.3335 6.96518 17.3335 7.33337V16.6667C17.3335 17.0349 17.035 17.3334 16.6668 17.3334H10.6668Z" fill="black"/>
</svg>
