<svg width="26" height="26" viewBox="0 0 26 26" fill="none" xmlns="http://www.w3.org/2000/svg">
<rect x="1" y="1" width="24" height="24" rx="4" fill="white"/>
<g clip-path="url(#clip0_152_7873)">
<path fill-rule="evenodd" clip-rule="evenodd" d="M13.7516 7.72079C12.6067 7.5584 11.44 7.77251 10.4274 8.33086C9.41476 8.88922 8.61103 9.76157 8.13732 10.8165C7.66361 11.8713 7.54559 13.0516 7.80103 14.1794C8.05647 15.3072 8.67154 16.3214 9.55356 17.0693C10.4356 17.8171 11.5367 18.258 12.6911 18.3255C13.8455 18.393 14.9906 18.0835 15.9538 17.4437C16.917 16.8038 17.6461 15.8682 18.0313 14.7779C18.154 14.4307 18.5348 14.2487 18.882 14.3714C19.2292 14.494 19.4112 14.8749 19.2885 15.222C18.807 16.5849 17.8956 17.7544 16.6916 18.5543C15.4876 19.3541 14.0563 19.741 12.6133 19.6566C11.1703 19.5721 9.79381 19.021 8.69129 18.0862C7.58877 17.1515 6.81994 15.8837 6.50063 14.4739C6.18133 13.0642 6.32886 11.5889 6.921 10.2702C7.51314 8.95164 8.5178 7.86121 9.78359 7.16326C11.0494 6.46532 12.5077 6.19768 13.9389 6.40067C15.3666 6.60318 16.69 7.26313 17.7108 8.28139L19.6666 10.1231V7.66664C19.6666 7.29845 19.9651 6.99997 20.3333 6.99997C20.7014 6.99997 20.9999 7.29845 20.9999 7.66664V11.6666C20.9999 12.0348 20.7014 12.3333 20.3333 12.3333H16.3333C15.9651 12.3333 15.6666 12.0348 15.6666 11.6666C15.6666 11.2984 15.9651 11 16.3333 11H18.6529L16.7895 9.24531C16.7846 9.24069 16.7798 9.23599 16.775 9.23123C15.9576 8.41329 14.8965 7.88319 13.7516 7.72079Z" fill="black"/>
</g>
<rect x="1" y="1" width="24" height="24" rx="4" stroke="#FAB82E"/>
<defs>
<clipPath id="clip0_152_7873">
<rect width="16" height="16" fill="white" transform="translate(5 5)"/>
</clipPath>
</defs>
</svg>
