<svg width="16" height="16" viewBox="0 0 16 16" fill="none" xmlns="http://www.w3.org/2000/svg">
<path fill-rule="evenodd" clip-rule="evenodd" d="M11.0786 12.0213C10.0522 12.8424 8.75017 13.3334 7.3335 13.3334C4.01979 13.3334 1.3335 10.6471 1.3335 7.33337C1.3335 4.01967 4.01979 1.33337 7.3335 1.33337C10.6472 1.33337 13.3335 4.01967 13.3335 7.33337C13.3335 8.75005 12.8425 10.052 12.0214 11.0785L14.4716 13.5286C14.7319 13.789 14.7319 14.2111 14.4716 14.4714C14.2112 14.7318 13.7891 14.7318 13.5288 14.4714L11.0786 12.0213ZM2.66683 7.33337C2.66683 4.75605 4.75617 2.66671 7.3335 2.66671C9.91083 2.66671 12.0002 4.75605 12.0002 7.33337C12.0002 8.59066 11.503 9.73183 10.6944 10.571C10.6716 10.5885 10.6497 10.6077 10.6288 10.6286C10.6079 10.6495 10.5886 10.6715 10.5711 10.6943C9.73195 11.5028 8.59079 12 7.3335 12C4.75617 12 2.66683 9.9107 2.66683 7.33337Z" fill="black"/>
</svg>
