<svg width="14" height="14" viewBox="0 0 14 14" fill="none" xmlns="http://www.w3.org/2000/svg">
<path d="M3.67087 9.74581L6.58754 12.6625C6.81534 12.8903 7.18469 12.8903 7.4125 12.6625L10.3292 9.74581C10.496 9.57898 10.5459 9.32808 10.4556 9.1101C10.3653 8.89213 10.1526 8.75 9.91668 8.75H4.08335C3.84741 8.75 3.63471 8.89212 3.54442 9.1101C3.45413 9.32808 3.50404 9.57898 3.67087 9.74581Z" fill="#D8D8D8"/>
<path d="M7.4125 1.33748C7.18469 1.10967 6.81534 1.10967 6.58754 1.33748L3.67087 4.25415C3.50404 4.42098 3.45413 4.67188 3.54442 4.88986C3.63471 5.10783 3.84741 5.24996 4.08335 5.24996H9.91668C10.1526 5.24996 10.3653 5.10783 10.4556 4.88986C10.5459 4.67188 10.496 4.42098 10.3292 4.25415L7.4125 1.33748Z" fill="#D8D8D8"/>
</svg>
