<svg width="15" height="16" viewBox="0 0 15 16" fill="none" xmlns="http://www.w3.org/2000/svg">
<path d="M6.25 3.625C6.25 2.93464 6.80964 2.375 7.5 2.375C8.19036 2.375 8.75 2.93464 8.75 3.625C8.75 4.31536 8.19036 4.875 7.5 4.875C6.80964 4.875 6.25 4.31536 6.25 3.625Z" fill="#D8D8D8"/>
<path d="M6.25 8C6.25 7.30964 6.80964 6.75 7.5 6.75C8.19036 6.75 8.75 7.30964 8.75 8C8.75 8.69036 8.19036 9.25 7.5 9.25C6.80964 9.25 6.25 8.69036 6.25 8Z" fill="#D8D8D8"/>
<path d="M7.5 11.125C6.80964 11.125 6.25 11.6846 6.25 12.375C6.25 13.0654 6.80964 13.625 7.5 13.625C8.19036 13.625 8.75 13.0654 8.75 12.375C8.75 11.6846 8.19036 11.125 7.5 11.125Z" fill="#D8D8D8"/>
</svg>
